<svg width="135" height="13" viewBox="0 0 135 13" fill="none" xmlns="http://www.w3.org/2000/svg">
<path d="M0.827359 1.91309C0.598404 1.91309 0.403273 1.83776 0.241964 1.68714C0.0806543 1.53649 0 1.34569 0 1.11471C0 0.883734 0.0806543 0.692924 0.241964 0.542297C0.403273 0.386638 0.598404 0.308808 0.827359 0.308808C1.06152 0.308808 1.25925 0.386638 1.42056 0.542297C1.58707 0.692924 1.67033 0.883734 1.67033 1.11471C1.67033 1.33564 1.58707 1.52394 1.42056 1.6796C1.25925 1.83526 1.06152 1.91309 0.827359 1.91309ZM1.45178 11.584H0.171716V3.87136H1.45178V11.584ZM10.6776 11.584H9.39755V7.18537C9.39755 5.54845 8.77833 4.72999 7.5399 4.72999C6.89986 4.72999 6.3691 4.96348 5.94761 5.43046C5.53134 5.8924 5.32319 6.47738 5.32319 7.18537V11.584H4.04314V3.87136H5.32319V5.15177H5.35442C5.95802 4.17766 6.83221 3.6906 7.97699 3.6906C8.85118 3.6906 9.51984 3.96425 9.98296 4.51157C10.446 5.05386 10.6776 5.83969 10.6776 6.86904V11.584ZM17.0467 1.25029C16.7969 1.11471 16.5133 1.04692 16.1959 1.04692C15.3009 1.04692 14.8534 1.59173 14.8534 2.68133V3.87136H16.7267V4.92582H14.8534V11.584H13.5812V4.92582H12.2153V3.87136H13.5812V2.62107C13.5812 1.81266 13.8231 1.17496 14.3071 0.707993C14.791 0.236001 15.3946 0 16.1179 0C16.5081 0 16.8177 0.045191 17.0467 0.135573V1.25029ZM21.4489 11.7647C20.2677 11.7647 19.3232 11.4057 18.6156 10.6877C17.9131 9.96461 17.5618 9.00805 17.5618 7.81805C17.5618 6.52257 17.9287 5.51079 18.6624 4.78271C19.3961 4.05464 20.3873 3.6906 21.6362 3.6906C22.8279 3.6906 23.7566 4.0446 24.4227 4.75259C25.094 5.46059 25.4296 6.44224 25.4296 7.69754C25.4296 8.92775 25.0679 9.91438 24.3447 10.6576C23.6265 11.3957 22.6613 11.7647 21.4489 11.7647ZM21.5426 4.72999C20.7204 4.72999 20.0699 5.00114 19.5913 5.54344C19.1125 6.08071 18.8731 6.82384 18.8731 7.77286C18.8731 8.68672 19.1151 9.40728 19.5991 9.93453C20.083 10.4617 20.7308 10.7254 21.5426 10.7254C22.3699 10.7254 23.0047 10.4667 23.4471 9.94957C23.8946 9.43234 24.1183 8.69675 24.1183 7.74272C24.1183 6.77865 23.8946 6.03551 23.4471 5.5133C23.0047 4.9911 22.3699 4.72999 21.5426 4.72999ZM35.2643 8.4206H35.2252C34.8453 9.61561 34.0986 10.2131 32.9851 10.2131C32.2722 10.2131 31.6973 9.9596 31.2602 9.45249C30.8283 8.94529 30.6123 8.26243 30.6123 7.40379C30.6123 6.269 30.9115 5.32752 31.5099 4.57936C32.1135 3.82617 32.9044 3.44958 33.8827 3.44958C34.2574 3.44958 34.5904 3.54247 34.8818 3.72826C35.1783 3.91404 35.3683 4.14753 35.4516 4.42872H35.4827C35.4931 4.28813 35.5192 3.9994 35.5609 3.56256H36.5365C36.2919 6.32926 36.1696 7.73771 36.1696 7.78792C36.1696 8.82729 36.4792 9.34702 37.0984 9.34702C37.6604 9.34702 38.1262 9.05327 38.4956 8.46578C38.8702 7.8783 39.0576 7.11759 39.0576 6.18364C39.0576 4.80281 38.6049 3.67554 37.6995 2.80184C36.794 1.92816 35.54 1.4913 33.9374 1.4913C32.3919 1.4913 31.1144 2.01351 30.1049 3.05793C29.0955 4.10234 28.5907 5.40786 28.5907 6.97448C28.5907 8.516 29.0695 9.76129 30.0269 10.7103C30.9895 11.6542 32.2852 12.1263 33.9139 12.1263C35.1992 12.1263 36.2971 11.9204 37.2077 11.5087V12.4426C36.3075 12.8141 35.1835 13 33.8359 13C31.9418 13 30.4145 12.4501 29.2541 11.3505C28.099 10.2458 27.5214 8.80222 27.5214 7.01967C27.5214 5.18191 28.1276 3.65797 29.34 2.44785C30.5576 1.23773 32.1109 0.63267 33.9997 0.63267C35.769 0.63267 37.2337 1.13982 38.3941 2.15411C39.5545 3.16839 40.1347 4.49149 40.1347 6.12339C40.1347 7.31844 39.8277 8.30009 39.2137 9.06831C38.6049 9.83157 37.8607 10.2131 36.9814 10.2131C35.8418 10.2131 35.2694 9.61561 35.2643 8.4206ZM33.867 4.32328C33.2218 4.32328 32.6989 4.61953 32.2982 5.21203C31.9028 5.80454 31.705 6.54015 31.705 7.41886C31.705 8.01136 31.8377 8.47834 32.1031 8.81977C32.3736 9.16125 32.7327 9.33198 33.1802 9.33198C33.8255 9.33198 34.3354 9.02319 34.7101 8.40553C35.0899 7.7829 35.2798 6.95941 35.2798 5.93508C35.2798 4.86054 34.8089 4.32328 33.867 4.32328ZM48.4629 11.584H47.1829V10.3789H47.1516C46.5949 11.3027 45.7753 11.7647 44.693 11.7647C43.8969 11.7647 43.2724 11.5614 42.8198 11.1547C42.3723 10.7479 42.1485 10.2081 42.1485 9.53531C42.1485 8.09422 43.0279 7.25567 44.7866 7.01967L47.1829 6.69581C47.1829 5.38526 46.6339 4.72999 45.5359 4.72999C44.5733 4.72999 43.7043 5.04633 42.9291 5.67901V4.41366C43.7147 3.93162 44.6202 3.6906 45.6452 3.6906C47.5237 3.6906 48.4629 4.64965 48.4629 6.56777V11.584ZM47.1829 7.68247L45.255 7.93856C44.6617 8.01889 44.2143 8.162 43.9124 8.36787C43.6106 8.56872 43.4598 8.92775 43.4598 9.44488C43.4598 9.82154 43.5976 10.1303 43.8735 10.3714C44.1544 10.6074 44.5265 10.7254 44.9895 10.7254C45.6245 10.7254 46.1474 10.5119 46.5585 10.0851C46.9747 9.65331 47.1829 9.10851 47.1829 8.45072V7.68247ZM55.0428 5.12165C54.819 4.95595 54.4964 4.8731 54.0749 4.8731C53.5285 4.8731 53.0707 5.12165 52.7012 5.61875C52.3369 6.11585 52.1548 6.79372 52.1548 7.65235V11.584H50.8748V3.87136H52.1548V5.46058H52.1861C52.3682 4.91829 52.6466 4.49651 53.0212 4.19524C53.3959 3.88894 53.8148 3.7358 54.2778 3.7358C54.6109 3.7358 54.8659 3.77094 55.0428 3.84124V5.12165ZM57.0877 1.91309C56.8589 1.91309 56.6636 1.83776 56.5024 1.68714C56.341 1.53649 56.2604 1.34569 56.2604 1.11471C56.2604 0.883734 56.341 0.692924 56.5024 0.542297C56.6636 0.386638 56.8589 0.308808 57.0877 0.308808C57.3219 0.308808 57.5196 0.386638 57.681 0.542297C57.8474 0.692924 57.9308 0.883734 57.9308 1.11471C57.9308 1.33564 57.8474 1.52394 57.681 1.6796C57.5196 1.83526 57.3219 1.91309 57.0877 1.91309ZM57.7122 11.584H56.4322V3.87136H57.7122V11.584ZM66.938 11.584H65.658V7.18537C65.658 5.54845 65.0388 4.72999 63.8003 4.72999C63.1603 4.72999 62.6295 4.96348 62.208 5.43046C61.7918 5.8924 61.5836 6.47738 61.5836 7.18537V11.584H60.3036V3.87136H61.5836V5.15177H61.6149C62.2184 4.17766 63.0926 3.6906 64.2374 3.6906C65.1116 3.6906 65.7802 3.96425 66.2434 4.51157C66.7064 5.05386 66.938 5.83969 66.938 6.86904V11.584ZM73.0651 11.5087C72.7633 11.6693 72.3653 11.7497 71.871 11.7497C70.4713 11.7497 69.7713 10.9965 69.7713 9.49009V4.92582H68.3976V3.87136H69.7713V1.98841L71.0514 1.58922V3.87136H73.0651V4.92582H71.0514V9.27173C71.0514 9.78886 71.1424 10.1579 71.3246 10.3789C71.5067 10.5998 71.8085 10.7103 72.23 10.7103C72.5526 10.7103 72.831 10.6249 73.0651 10.4542V11.5087ZM81.1982 8.03647H75.555C75.5758 8.89506 75.8152 9.55787 76.2732 10.0249C76.7311 10.4919 77.3607 10.7254 78.162 10.7254C79.0622 10.7254 79.8895 10.4391 80.6441 9.86676V11.0266C79.9416 11.5187 79.0127 11.7647 77.8576 11.7647C76.7285 11.7647 75.8413 11.4157 75.196 10.7178C74.5508 10.0148 74.2282 9.0282 74.2282 7.75779C74.2282 6.55772 74.5793 5.58109 75.2819 4.82791C75.9895 4.0697 76.8663 3.6906 77.9123 3.6906C78.9581 3.6906 79.7672 4.01698 80.3397 4.66973C80.9121 5.3225 81.1982 6.22883 81.1982 7.38874V8.03647ZM79.8869 6.98955C79.8817 6.27653 79.7022 5.72169 79.3484 5.32501C78.9997 4.92833 78.5132 4.72999 77.8888 4.72999C77.2852 4.72999 76.7727 4.93837 76.3512 5.35513C75.9297 5.77189 75.6695 6.3167 75.5706 6.98955H79.8869ZM84.4218 11.584H83.1418V0.1657H84.4218V11.584ZM88.2933 11.584H87.0132V0.1657H88.2933V11.584ZM97.3083 8.03647H91.6651C91.6859 8.89506 91.9253 9.55787 92.3833 10.0249C92.8411 10.4919 93.4707 10.7254 94.2721 10.7254C95.1723 10.7254 95.9996 10.4391 96.7542 9.86676V11.0266C96.0517 11.5187 95.1228 11.7647 93.9677 11.7647C92.8385 11.7647 91.9514 11.4157 91.3061 10.7178C90.6609 10.0148 90.3382 9.0282 90.3382 7.75779C90.3382 6.55772 90.6894 5.58109 91.392 4.82791C92.0996 4.0697 92.9764 3.6906 94.0223 3.6906C95.0682 3.6906 95.8773 4.01698 96.4498 4.66973C97.0222 5.3225 97.3083 6.22883 97.3083 7.38874V8.03647ZM95.997 6.98955C95.9918 6.27653 95.8123 5.72169 95.4585 5.32501C95.1098 4.92833 94.6233 4.72999 93.9989 4.72999C93.3953 4.72999 92.8828 4.93837 92.4613 5.35513C92.0398 5.77189 91.7796 6.3167 91.6807 6.98955H95.997ZM104.7 11.23C104.086 11.5865 103.357 11.7647 102.514 11.7647C101.375 11.7647 100.454 11.4082 99.7514 10.6952C99.0541 9.97714 98.7055 9.04826 98.7055 7.90843C98.7055 6.63806 99.0828 5.61875 99.8376 4.8505C100.592 4.07723 101.599 3.6906 102.858 3.6906C103.56 3.6906 104.18 3.81613 104.716 4.06719V5.33254C104.123 4.93085 103.487 4.72999 102.811 4.72999C101.995 4.72999 101.323 5.0137 100.798 5.58109C100.277 6.14347 100.016 6.8841 100.016 7.80298C100.016 8.70678 100.261 9.41981 100.751 9.94205C101.245 10.4642 101.906 10.7254 102.733 10.7254C103.43 10.7254 104.086 10.5019 104.7 10.055V11.23ZM110.343 11.5087C110.041 11.6693 109.643 11.7497 109.149 11.7497C107.749 11.7497 107.049 10.9965 107.049 9.49009V4.92582H105.675V3.87136H107.049V1.98841L108.33 1.58922V3.87136H110.343V4.92582H108.33V9.27173C108.33 9.78886 108.421 10.1579 108.602 10.3789C108.784 10.5998 109.086 10.7103 109.508 10.7103C109.83 10.7103 110.109 10.6249 110.343 10.4542V11.5087ZM112.498 11.7497C112.258 11.7497 112.052 11.6668 111.88 11.5012C111.715 11.3354 111.631 11.1371 111.631 10.9061C111.631 10.6751 111.715 10.4768 111.88 10.3111C112.052 10.1404 112.258 10.055 112.498 10.055C112.742 10.055 112.95 10.1404 113.122 10.3111C113.293 10.4768 113.379 10.6751 113.379 10.9061C113.379 11.1371 113.293 11.3354 113.122 11.5012C112.95 11.6668 112.742 11.7497 112.498 11.7497ZM121.24 11.584H119.959V10.3789H119.928C119.371 11.3027 118.551 11.7647 117.469 11.7647C116.673 11.7647 116.049 11.5614 115.596 11.1547C115.148 10.7479 114.925 10.2081 114.925 9.53531C114.925 8.09422 115.804 7.25567 117.563 7.01967L119.959 6.69581C119.959 5.38526 119.41 4.72999 118.312 4.72999C117.349 4.72999 116.481 5.04633 115.706 5.67901V4.41366C116.491 3.93162 117.396 3.6906 118.421 3.6906C120.3 3.6906 121.24 4.64965 121.24 6.56777V11.584ZM119.959 7.68247L118.032 7.93856C117.438 8.01889 116.991 8.162 116.689 8.36787C116.387 8.56872 116.236 8.92775 116.236 9.44488C116.236 9.82154 116.374 10.1303 116.65 10.3714C116.931 10.6074 117.302 10.7254 117.766 10.7254C118.4 10.7254 118.924 10.5119 119.335 10.0851C119.751 9.65331 119.959 9.10851 119.959 8.45072V7.68247ZM135 11.584H133.72V7.15525C133.72 6.30163 133.582 5.68403 133.307 5.30242C133.036 4.9208 132.578 4.72999 131.933 4.72999C131.386 4.72999 130.921 4.97101 130.535 5.45305C130.155 5.93508 129.966 6.51253 129.966 7.18537V11.584H128.686V7.00461C128.686 5.4882 128.079 4.72999 126.867 4.72999C126.305 4.72999 125.841 4.95846 125.478 5.41539C125.113 5.8673 124.931 6.45729 124.931 7.18537V11.584H123.652V3.87136H124.931V5.09152H124.962C125.53 4.15758 126.357 3.6906 127.445 3.6906C127.99 3.6906 128.467 3.83873 128.873 4.13498C129.278 4.42621 129.557 4.81034 129.708 5.28735C130.301 4.22285 131.186 3.6906 132.361 3.6906C134.121 3.6906 135 4.73753 135 6.83137V11.584Z" fill="white"/>
</svg>
